<?xml version="1.0" standalone="no"?>
<!DOCTYPE svg PUBLIC "-//W3C//DTD SVG 20010904//EN"
 "http://www.w3.org/TR/2001/REC-SVG-20010904/DTD/svg10.dtd">
<svg version="1.0" xmlns="http://www.w3.org/2000/svg"
 width="500.000000pt" height="500.000000pt" viewBox="0 0 500.000000 500.000000"
 preserveAspectRatio="xMidYMid meet">

<g transform="translate(0.000000,500.000000) scale(0.100000,-0.100000)"
fill="#000000" stroke="none">
<path d="M0 2500 l0 -2500 2500 0 2500 0 0 2500 0 2500 -2500 0 -2500 0 0
-2500z m2390 550 l0 -170 40 0 40 0 0 -310 0 -310 -40 0 -40 0 0 -170 0 -170
-130 0 -130 0 0 135 0 135 50 0 c56 0 56 0 36 85 l-11 50 -114 0 -114 0 -13
-60 c-6 -33 -10 -63 -7 -67 2 -5 24 -8 49 -8 l44 0 0 -135 0 -135 -285 0 -285
0 0 135 0 135 30 0 c22 0 33 6 40 23 5 12 64 220 130 462 66 242 127 464 136
493 l15 52 279 0 280 0 0 -170z m920 159 c69 -11 154 -45 197 -79 90 -71 136
-223 113 -378 -19 -136 -70 -214 -175 -265 -79 -39 -133 -46 -438 -57 -4 0 -6
-53 -5 -117 l3 -118 78 -3 77 -3 0 -134 0 -135 -355 0 -355 0 0 135 0 135 40
0 40 0 0 380 0 380 -40 0 -40 0 0 135 0 135 398 0 c227 0 425 -5 462 -11z
m-1544 -1596 c18 -49 21 -63 10 -63 -8 0 -16 7 -20 15 -8 21 -53 19 -65 -2 -5
-10 -13 -14 -17 -10 -7 7 -2 27 27 105 15 40 40 22 65 -45z m87 45 l16 -23 20
25 c28 36 37 17 12 -25 -11 -20 -21 -47 -21 -61 0 -13 -4 -24 -10 -24 -5 0
-10 11 -10 25 0 13 -9 39 -20 57 -11 18 -20 36 -20 41 0 15 18 6 33 -15z m137
-20 c0 -52 11 -71 36 -66 15 2 20 14 22 56 4 68 22 68 22 -1 0 -59 -12 -77
-50 -77 -14 0 -31 5 -38 12 -14 14 -16 118 -2 118 6 0 10 -19 10 -42z m220 32
c0 -5 -13 -10 -30 -10 -40 0 -38 -16 5 -34 36 -16 46 -41 23 -64 -24 -24 -99
-8 -83 18 5 8 10 9 18 1 6 -6 19 -11 30 -11 27 0 17 34 -11 38 -29 4 -48 38
-31 58 13 16 79 19 79 4z m80 -15 c0 -21 5 -25 30 -25 25 0 30 4 30 25 0 16 6
25 15 25 12 0 15 -14 15 -65 0 -51 -3 -65 -15 -65 -10 0 -15 10 -15 30 0 27
-3 30 -30 30 -27 0 -30 -3 -30 -30 0 -17 -5 -30 -12 -30 -12 0 -13 17 -9 113
1 27 21 20 21 -8z m298 -9 c4 -31 -10 -46 -45 -46 -18 0 -23 -6 -23 -25 0 -14
-4 -25 -10 -25 -6 0 -10 29 -10 66 l0 65 43 -3 c38 -3 42 -6 45 -32z m139 -31
c17 -53 18 -65 7 -65 -8 0 -14 7 -14 15 0 10 -10 15 -29 15 -16 0 -31 -6 -35
-15 -6 -17 -26 -21 -26 -5 0 5 9 34 21 65 29 77 49 74 76 -10z m83 33 c0 -57
10 -79 34 -76 18 3 21 11 24 56 2 39 7 52 19 52 13 0 15 -10 11 -56 -3 -33
-11 -60 -19 -65 -20 -13 -63 -11 -77 3 -14 14 -16 118 -2 118 6 0 10 -15 10
-32z m241 16 c7 -9 13 -32 13 -51 0 -44 -24 -63 -76 -63 l-38 0 0 65 0 65 44
0 c28 0 48 -6 57 -16z m149 6 c0 -5 -13 -10 -30 -10 -20 0 -30 -5 -30 -15 0
-10 10 -15 31 -15 17 0 28 -4 24 -10 -3 -5 -17 -10 -31 -10 -17 0 -24 -5 -24
-20 0 -16 7 -20 30 -20 17 0 30 -4 30 -10 0 -5 -18 -10 -40 -10 -43 0 -42 -3
-42 100 0 11 0 22 1 25 2 10 81 5 81 -5z m80 -45 c0 -52 1 -55 25 -55 14 0 25
-4 25 -10 0 -5 -18 -10 -40 -10 l-40 0 0 65 c0 51 3 65 15 65 12 0 15 -13 15
-55z"/>
<path d="M2051 2683 c-17 -87 -31 -164 -31 -170 0 -9 20 -13 68 -13 38 0 71 2
74 5 3 3 -10 79 -28 168 -19 89 -34 163 -34 165 0 1 -4 2 -8 2 -5 0 -23 -71
-41 -157z"/>
<path d="M3007 2943 c-4 -3 -7 -66 -7 -140 l0 -133 39 0 c86 0 121 40 121 138
0 73 -17 112 -56 128 -35 15 -86 19 -97 7z"/>
<path d="M1716 1635 c-10 -26 -7 -35 9 -35 17 0 19 18 6 38 -7 11 -10 10 -15
-3z"/>
<path d="M2520 1640 c0 -16 5 -21 23 -18 12 2 22 10 22 18 0 8 -10 16 -22 18
-18 3 -23 -2 -23 -18z"/>
<path d="M2680 1641 c0 -5 -3 -16 -6 -25 -4 -11 -1 -16 10 -16 18 0 22 35 6
45 -5 3 -10 2 -10 -4z"/>
<path d="M2980 1615 c0 -37 3 -45 18 -45 24 0 42 19 42 45 0 26 -18 45 -42 45
-15 0 -18 -8 -18 -45z"/>
</g>
</svg>
